<svg width="25" height="25" viewBox="0 0 25 25" fill="none" xmlns="http://www.w3.org/2000/svg">
<g clip-path="url(#clip0_241_298)">
<path d="M24.9489 17.1524C24.957 16.8205 24.6416 16.5831 24.3291 16.6717L17.5582 18.6062H16.4055C15.1949 18.6062 14.2101 19.5911 14.2101 20.8017C14.2101 22.0123 15.1949 22.9971 16.4055 22.9971H17.5582L24.3291 24.9316C24.6442 25.0223 24.9569 24.778 24.9489 24.451C24.9465 23.4224 24.6581 22.8813 24.4035 22.404C24.1721 21.9703 23.9724 21.5957 23.9724 20.8017C23.9724 20.0077 24.1722 19.6331 24.4035 19.1993C24.6581 18.722 24.9465 18.181 24.9489 17.1524ZM18.1127 19.4594L23.9177 17.8008C23.7389 18.705 23.1514 19.0437 23.0233 20.3154H18.1127V19.4594ZM18.1127 22.144V21.2881H23.0233C23.1514 22.5594 23.7391 22.8992 23.9177 23.8026L18.1127 22.144Z" fill="black"/>
<path d="M21.0952 11.2028C23.4375 8.86055 23.3952 5.3292 21.3849 3.45591C19.4827 1.6833 16.155 1.54556 13.7965 3.9041C11.6161 6.08452 11.3876 9.52861 13.4291 11.5702C15.4605 13.6013 18.9038 13.3941 21.0952 11.2028ZM19.3445 11.3354C19.3423 11.3332 18.8006 10.7913 18.1337 10.1244L20.0168 8.24126L21.2292 9.45371C20.7747 10.2302 20.1174 10.8839 19.3445 11.3354ZM17.4459 9.43657C16.8593 8.8499 16.1882 8.17871 15.5628 7.55337L17.4459 5.67031L19.329 7.55347L17.4459 9.43657ZM21.6588 8.50762L20.7046 7.55347L21.8554 6.40274C21.953 7.06563 21.8964 7.79243 21.6588 8.50762ZM21.5438 5.33867L20.0168 6.86563L18.1337 4.98247L19.6602 3.45596C20.4989 3.83579 21.1628 4.49746 21.5438 5.33867ZM18.5964 3.14414L17.4458 4.29473L16.4915 3.34043C17.1997 3.10513 17.9268 3.04522 18.5964 3.14414ZM15.5455 3.77002L16.7581 4.98257L14.8751 6.86558C14.3626 6.35303 13.9276 5.91802 13.6643 5.65469C14.1213 4.87168 14.7801 4.21861 15.5455 3.77002ZM13.2355 6.60147C13.5745 6.94053 13.8912 7.25723 14.1873 7.55332L13.0387 8.70195C12.9379 8.01729 13.005 7.2959 13.2355 6.60147ZM13.3489 9.76729L14.8751 8.24111C15.6677 9.03369 16.2825 9.64849 16.7582 10.1243L15.231 11.6514C14.4168 11.2838 13.7406 10.6352 13.3489 9.76729ZM17.446 10.8121C18.6878 12.054 17.9824 11.3488 18.3984 11.7648C17.7269 11.9884 17.0087 12.0654 16.2973 11.9607L17.446 10.8121Z" fill="black"/>
<path d="M22.5644 12.6719C25.5713 9.66499 25.7833 4.91933 22.9317 2.06767C20.0879 -0.776078 15.3424 -0.580082 12.3274 2.43496C9.699 5.06338 9.23059 8.99946 11.0046 11.8378L6.77117 16.0712C6.25569 15.7468 5.56502 15.8083 5.11653 16.2568L0.439868 20.9334C-0.080542 21.4539 -0.080542 22.3006 0.439868 22.821L2.1783 24.5594C2.69876 25.0798 3.54534 25.0799 4.06585 24.5594L8.74251 19.8828C9.19099 19.4343 9.25256 18.7436 8.92805 18.2281L13.1613 13.9949C16.0058 15.7736 19.9434 15.2929 22.5644 12.6719ZM8.26399 17.5167L7.48269 16.7354L11.5853 12.6328C11.8243 12.914 12.0853 13.175 12.3666 13.4141L8.26399 17.5167ZM13.0152 3.12275C19.3124 -3.17447 28.2368 5.62387 21.8766 11.9841C19.212 14.6488 15.0736 14.7771 12.6479 12.3515C10.2048 9.9083 10.3696 5.76831 13.0152 3.12275Z" fill="black"/>
</g>
<defs>
<clipPath id="clip0_241_298">
<rect width="25" height="25" fill="white"/>
</clipPath>
</defs>
</svg>
