<svg width="19" height="19" viewBox="0 0 19 19" fill="none" xmlns="http://www.w3.org/2000/svg">
<path d="M14.0521 3.11521V2.07813C14.0521 1.92065 13.9895 1.76963 13.8782 1.65828C13.7668 1.54692 13.6158 1.48438 13.4583 1.48438C13.3009 1.48438 13.1498 1.54692 13.0385 1.65828C12.9271 1.76963 12.8646 1.92065 12.8646 2.07813V3.06771H6.13542V2.07813C6.13542 1.92065 6.07287 1.76963 5.96151 1.65828C5.85016 1.54692 5.69914 1.48438 5.54167 1.48438C5.3842 1.48438 5.23317 1.54692 5.12182 1.65828C5.01047 1.76963 4.94792 1.92065 4.94792 2.07813V3.11521C4.06547 3.25793 3.26249 3.70971 2.68241 4.38985C2.10233 5.06999 1.78293 5.93421 1.78125 6.82813V13.7552C1.78125 14.7526 2.17744 15.709 2.88266 16.4142C3.58787 17.1194 4.54434 17.5156 5.54167 17.5156H13.4583C14.4557 17.5156 15.4122 17.1194 16.1174 16.4142C16.8226 15.709 17.2188 14.7526 17.2188 13.7552V6.82813C17.2171 5.93421 16.8977 5.06999 16.3176 4.38985C15.7375 3.70971 14.9346 3.25793 14.0521 3.11521ZM6.65001 14.1985H5.85834C5.70087 14.1985 5.54984 14.136 5.43849 14.0246C5.32714 13.9133 5.26459 13.7623 5.26459 13.6048C5.26459 13.4473 5.32714 13.2963 5.43849 13.185C5.54984 13.0736 5.70087 13.011 5.85834 13.011H6.65001C6.80748 13.011 6.9585 13.0736 7.06984 13.185C7.18119 13.2963 7.24376 13.4473 7.24376 13.6048C7.24376 13.7623 7.18119 13.9133 7.06984 14.0246C6.9585 14.136 6.80748 14.1985 6.65001 14.1985ZM6.65001 11.7602H5.85834C5.70087 11.7602 5.54984 11.6977 5.43849 11.5863C5.32714 11.475 5.26459 11.3239 5.26459 11.1665C5.26459 11.009 5.32714 10.8579 5.43849 10.7466C5.54984 10.6353 5.70087 10.5727 5.85834 10.5727H6.65001C6.80748 10.5727 6.9585 10.6353 7.06984 10.7466C7.18119 10.8579 7.24376 11.009 7.24376 11.1665C7.24376 11.3239 7.18119 11.475 7.06984 11.5863C6.9585 11.6977 6.80748 11.7602 6.65001 11.7602ZM9.90375 14.1985H9.11208C8.95462 14.1985 8.80357 14.136 8.69226 14.0246C8.58088 13.9133 8.51833 13.7623 8.51833 13.6048C8.51833 13.4473 8.58088 13.2963 8.69226 13.185C8.80357 13.0736 8.95462 13.011 9.11208 13.011H9.90375C10.0612 13.011 10.2123 13.0736 10.3236 13.185C10.435 13.2963 10.4975 13.4473 10.4975 13.6048C10.4975 13.7623 10.435 13.9133 10.3236 14.0246C10.2123 14.136 10.0612 14.1985 9.90375 14.1985ZM9.90375 11.7602H9.11208C8.95462 11.7602 8.80357 11.6977 8.69226 11.5863C8.58088 11.475 8.51833 11.3239 8.51833 11.1665C8.51833 11.009 8.58088 10.8579 8.69226 10.7466C8.80357 10.6353 8.95462 10.5727 9.11208 10.5727H9.90375C10.0612 10.5727 10.2123 10.6353 10.3236 10.7466C10.435 10.8579 10.4975 11.009 10.4975 11.1665C10.4975 11.3239 10.435 11.475 10.3236 11.5863C10.2123 11.6977 10.0612 11.7602 9.90375 11.7602ZM13.1575 14.1985H12.3658C12.2084 14.1985 12.0573 14.136 11.946 14.0246C11.8346 13.9133 11.7721 13.7623 11.7721 13.6048C11.7721 13.4473 11.8346 13.2963 11.946 13.185C12.0573 13.0736 12.2084 13.011 12.3658 13.011H13.1575C13.315 13.011 13.466 13.0736 13.5773 13.185C13.6887 13.2963 13.7513 13.4473 13.7513 13.6048C13.7513 13.7623 13.6887 13.9133 13.5773 14.0246C13.466 14.136 13.315 14.1985 13.1575 14.1985ZM13.1575 11.7602H12.3658C12.2084 11.7602 12.0573 11.6977 11.946 11.5863C11.8346 11.475 11.7721 11.3239 11.7721 11.1665C11.7721 11.009 11.8346 10.8579 11.946 10.7466C12.0573 10.6353 12.2084 10.5727 12.3658 10.5727H13.1575C13.315 10.5727 13.466 10.6353 13.5773 10.7466C13.6887 10.8579 13.7513 11.009 13.7513 11.1665C13.7513 11.3239 13.6887 11.475 13.5773 11.5863C13.466 11.6977 13.315 11.7602 13.1575 11.7602ZM16.0313 7.80187H2.96875V6.81229C2.96953 6.23445 3.1654 5.6738 3.52462 5.22118C3.88384 4.76857 4.38535 4.45052 4.94792 4.31854V5.22896C4.94792 5.38643 5.01047 5.53746 5.12182 5.6488C5.23317 5.76015 5.3842 5.82271 5.54167 5.82271C5.69914 5.82271 5.85016 5.76015 5.96151 5.6488C6.07287 5.53746 6.13542 5.38643 6.13542 5.22896V4.23938H12.8646V5.22896C12.8646 5.38643 12.9271 5.53746 13.0385 5.6488C13.1498 5.76015 13.3009 5.82271 13.4583 5.82271C13.6158 5.82271 13.7668 5.76015 13.8782 5.6488C13.9895 5.53746 14.0521 5.38643 14.0521 5.22896V4.31854C14.6146 4.45052 15.1162 4.76857 15.4754 5.22118C15.8346 5.6738 16.0305 6.23445 16.0313 6.81229V7.80187Z" fill="white"/>
</svg>
