<svg width="18" height="18" viewBox="0 0 18 18" fill="none" xmlns="http://www.w3.org/2000/svg">
<path fill-rule="evenodd" clip-rule="evenodd" d="M7.72474 6.06421C7.3961 5.99942 7.05676 5.9655 6.71001 5.9655C3.82721 5.9655 1.49023 8.30247 1.49023 11.1853C1.49023 14.0681 3.82721 16.4051 6.71001 16.4051H12.3026C14.5677 16.4051 16.4039 14.5689 16.4039 12.3038C16.4039 10.896 15.6947 9.65499 14.6157 8.91677C14.8067 8.46809 14.9125 7.97437 14.9125 7.45687C14.9125 5.39773 13.2432 3.72845 11.1841 3.72845C9.61699 3.72845 8.27647 4.69483 7.72474 6.06421ZM9.13341 6.56112C9.88334 6.95483 10.525 7.52517 11.0037 8.21642C11.0553 8.29084 11.1889 8.35326 11.325 8.32C11.6391 8.24312 11.9666 8.20255 12.3026 8.20255C12.6288 8.20255 12.9466 8.24073 13.2517 8.31306C13.3609 8.04969 13.4212 7.76074 13.4212 7.45687C13.4212 6.22138 12.4196 5.21982 11.1841 5.21982C10.2675 5.21982 9.47881 5.77161 9.13341 6.56112Z" fill="#FFC824"/>
<path fill-rule="evenodd" clip-rule="evenodd" d="M11.1857 0.745667C11.5975 0.745667 11.9314 1.07952 11.9314 1.49135V1.86419C11.9314 2.27602 11.5975 2.60987 11.1857 2.60987C10.7738 2.60987 10.44 2.27602 10.44 1.86419V1.49135C10.44 1.07952 10.7738 0.745667 11.1857 0.745667ZM6.70278 2.60208C6.99399 2.31087 7.46613 2.31087 7.75732 2.60208L8.02099 2.86572C8.31218 3.15693 8.31218 3.62907 8.02099 3.92028C7.72973 4.21148 7.25762 4.21148 6.96642 3.92028L6.70278 3.65663C6.41157 3.36543 6.41157 2.89329 6.70278 2.60208ZM15.6657 2.60208C15.9569 2.89329 15.9569 3.36543 15.6657 3.65663L15.402 3.92028C15.1108 4.21148 14.6386 4.21148 14.3474 3.92027C14.0563 3.62907 14.0563 3.15693 14.3474 2.86572L14.6111 2.60208C14.9023 2.31087 15.3745 2.31087 15.6657 2.60208ZM16.0326 7.08397C16.0326 6.67215 16.3665 6.33829 16.7783 6.33829H17.1511C17.563 6.33829 17.8968 6.67215 17.8968 7.08397C17.8968 7.49581 17.563 7.82965 17.1511 7.82965H16.7783C16.3665 7.82965 16.0326 7.49581 16.0326 7.08397Z" fill="#FFC824"/>
</svg>
