<svg width="29" height="29" viewBox="0 0 29 29" fill="none" xmlns="http://www.w3.org/2000/svg">
<path d="M27.26 4.90734C26.8476 4.06453 26.3039 3.29874 25.6378 2.63265C24.9717 1.96656 24.2105 1.42281 23.3722 1.01499C22.7197 0.688744 21.9267 0.820151 21.4056 1.34124L9.11233 13.6345C8.44623 14.3006 8.44623 15.3881 9.11233 16.0587L9.45217 16.3986L1.96654 23.8842C1.56779 24.283 1.56779 24.9309 1.96654 25.3251L2.94529 26.3039C3.14467 26.5033 3.40295 26.603 3.66576 26.603C3.92857 26.603 4.18686 26.5033 4.38623 26.3039L11.8764 18.8137L12.2162 19.1536C12.5515 19.4889 12.9865 19.6566 13.4261 19.6566C13.8656 19.6566 14.3051 19.4889 14.6359 19.1536L26.9292 6.86031C27.4548 6.34828 27.5862 5.55531 27.26 4.90734ZM3.66576 25.4248L2.84561 24.6047L15.0075 12.4428C15.1344 12.3159 15.3609 12.3159 15.4878 12.4428L15.8276 12.7826C15.959 12.9141 15.959 13.1316 15.8276 13.263L3.66576 25.4248ZM26.1317 6.06734L13.8384 18.3606C13.6119 18.5872 13.2448 18.5872 13.0183 18.3606L12.6784 18.0208L16.6297 14.0695C17.2051 13.4941 17.2051 12.5606 16.6297 11.9852L16.2898 11.6453C15.7325 11.088 14.7628 11.088 14.2055 11.6453L10.2542 15.5966L9.91436 15.2567C9.68779 15.0301 9.68779 14.6631 9.91436 14.4366L22.2031 2.14328C22.3798 1.96656 22.6426 1.92124 22.8692 2.03453C23.5987 2.38796 24.2603 2.86374 24.8358 3.43921C25.4112 4.01468 25.8825 4.67624 26.2405 5.41484C26.3537 5.62781 26.3084 5.89062 26.1317 6.06734Z" fill="black"/>
<path d="M17.3502 17.3502C15.216 19.4844 15.216 22.9598 17.3502 25.0986C18.4196 26.168 19.8197 26.7027 21.2244 26.7027C22.6291 26.7027 24.0292 26.168 25.0986 25.0986C27.2328 22.9644 27.2328 19.4889 25.0986 17.3502C22.9599 15.2114 19.4844 15.2114 17.3502 17.3502ZM18.1522 18.1522C18.9996 17.3048 20.1142 16.8834 21.2244 16.8834C21.6866 16.8834 22.1442 16.9605 22.5883 17.1055L22.2167 17.477C21.9947 17.6991 21.9947 18.057 22.2167 18.2791C22.3255 18.3878 22.4705 18.4467 22.6155 18.4467C22.7605 18.4467 22.9055 18.3923 23.0142 18.2791L23.6577 17.6356C23.7256 17.6809 23.7936 17.7353 23.8616 17.7852L17.7806 23.8661C17.7308 23.7981 17.6764 23.7302 17.6311 23.6622L18.2746 23.0187C18.4966 22.7967 18.4966 22.4387 18.2746 22.2167C18.0525 21.9947 17.6946 21.9947 17.4725 22.2167L17.101 22.5883C16.6071 21.0794 16.9514 19.3484 18.1522 18.1522ZM24.2966 24.2966C23.0958 25.4928 21.3694 25.8417 19.8605 25.3433L20.2321 24.9717C20.4541 24.7497 20.4541 24.3917 20.2321 24.1697C20.01 23.9477 19.6521 23.9477 19.43 24.1697L18.7866 24.8131C18.7186 24.7678 18.6506 24.7134 18.5827 24.6636L24.6681 18.5781C24.718 18.6461 24.7724 18.7141 24.8177 18.782L24.1742 19.4255C23.9522 19.6475 23.9522 20.0055 24.1742 20.2275C24.283 20.3362 24.428 20.3952 24.573 20.3952C24.718 20.3952 24.863 20.3408 24.9717 20.2275L25.3433 19.8559C25.8417 21.3694 25.4928 23.0958 24.2966 24.2966Z" fill="black"/>
<path d="M19.4571 21.6005C19.6021 21.6005 19.7471 21.5461 19.8559 21.4328L21.4373 19.8514C21.6593 19.6294 21.6593 19.2714 21.4373 19.0494C21.2153 18.8273 20.8573 18.8273 20.6353 19.0494L19.0539 20.6308C18.8318 20.8528 18.8318 21.2108 19.0539 21.4328C19.1671 21.5461 19.3121 21.6005 19.4571 21.6005Z" fill="black"/>
<path d="M22.5883 21.0114L21.0069 22.5928C20.7848 22.8148 20.7848 23.1728 21.0069 23.3948C21.1156 23.5036 21.2606 23.5625 21.4056 23.5625C21.5506 23.5625 21.6956 23.5081 21.8044 23.3948L23.3858 21.8134C23.6078 21.5914 23.6078 21.2334 23.3858 21.0114C23.1637 20.7894 22.8103 20.7894 22.5883 21.0114Z" fill="black"/>
</svg>
