<svg width="36" height="36" viewBox="0 0 36 36" fill="none" xmlns="http://www.w3.org/2000/svg">
<rect width="36" height="36" rx="10" fill="#BB0A00"/>
<path d="M16.5596 16.5601H17.2796V20.8801H16.5596V16.5601Z" fill="white"/>
<path d="M18.7197 16.5601H19.4397V20.8801H18.7197V16.5601Z" fill="white"/>
<path d="M12.9951 15.2158L13.1201 15.9249L13.8292 15.7999L15.0795 22.8905C15.1126 23.0785 15.2191 23.2457 15.3756 23.3552C15.532 23.4648 15.7255 23.5077 15.9136 23.4745L21.5861 22.4743C21.7741 22.4411 21.9413 22.3346 22.0508 22.1782C22.1603 22.0218 22.2032 21.8283 22.1701 21.6402L20.9198 14.5496L21.6289 14.4246L21.5039 13.7155L12.9951 15.2158ZM15.7885 22.7654L14.5383 15.6748L20.2108 14.6746L21.461 21.7652L15.7885 22.7654Z" fill="white"/>
<path d="M14.4004 13.3618L17.8786 10.7998L18.3057 11.3795L14.8274 13.9415L14.4004 13.3618Z" fill="white"/>
<path d="M17.7533 12.2301C17.9554 12.1642 18.215 12.0178 18.469 11.8096C18.637 11.6719 18.7793 11.5265 18.8869 11.3907C19.0722 11.502 19.3843 11.5951 19.7439 11.6335C20.0456 11.6657 20.3225 11.6528 20.5246 11.6069C20.5994 11.7505 20.6993 11.9067 20.8218 12.0609C21.086 12.3934 21.3795 12.6279 21.5823 12.6922C21.5877 12.7071 21.5931 12.722 21.5981 12.7371C21.4812 12.9191 21.3823 13.2409 21.3424 13.6143C21.3051 13.9635 21.3286 14.2797 21.3937 14.485C21.2365 14.5642 21.0618 14.6771 20.8897 14.8181C20.6367 15.0254 20.4423 15.2501 20.3377 15.4348C20.3051 15.4476 20.2719 15.4583 20.2387 15.4695C20.0567 15.3525 19.735 15.2526 19.3616 15.2127C18.9878 15.1728 18.6517 15.2023 18.4491 15.2783C18.4258 15.2644 18.4027 15.2503 18.38 15.2355C18.3137 15.1226 18.2335 15.0041 18.1403 14.8868C17.968 14.6699 17.7813 14.4963 17.6177 14.3822C17.5742 14.2946 17.5377 14.2035 17.5063 14.11C17.6234 13.928 17.7232 13.6057 17.7631 13.2319C17.803 12.8585 17.7734 12.523 17.6975 12.3204C17.7156 12.2899 17.7337 12.2595 17.7533 12.2301Z" fill="white"/>
</svg>
