<svg width="21" height="21" viewBox="0 0 21 21" fill="none" xmlns="http://www.w3.org/2000/svg">
<path d="M2.05216 6.02785C1.89583 6.40004 1.82715 6.79382 1.79258 7.21701C1.75389 7.69054 1.7539 8.27185 1.75391 8.97619V12.8985C1.7539 13.6029 1.75389 14.1841 1.79258 14.6577C1.83276 15.1495 1.919 15.6016 2.13539 16.0264C2.47094 16.6849 3.00637 17.2203 3.66494 17.5559C4.08961 17.7722 4.54173 17.8585 5.03356 17.8987C5.5071 17.9374 6.0884 17.9374 6.79273 17.9374H14.215C14.9193 17.9374 15.5007 17.9374 15.9742 17.8987C16.4661 17.8585 16.9182 17.7722 17.3429 17.5559C18.0014 17.2203 18.5368 16.6849 18.8724 16.0264C19.0888 15.6016 19.1751 15.1495 19.2152 14.6577C19.2539 14.1841 19.2539 13.6029 19.2539 12.8985V8.9762C19.2539 8.27186 19.2539 7.69055 19.2152 7.21701C19.1807 6.79382 19.112 6.40003 18.9556 6.02783L12.7202 11.1295C11.431 12.1844 9.57684 12.1844 8.28756 11.1295L2.05216 6.02785Z" fill="#C598FF"/>
<path d="M17.8725 4.21479C17.7068 4.08867 17.5293 3.97698 17.3419 3.88148C16.9172 3.6651 16.465 3.57886 15.9732 3.53868C15.4997 3.49998 14.9184 3.49999 14.214 3.5H6.79175C6.08741 3.49999 5.50607 3.49998 5.03254 3.53868C4.5407 3.57886 4.08859 3.6651 3.66392 3.88148C3.47648 3.97698 3.29902 4.08868 3.1333 4.2148L9.39469 9.33774C10.0393 9.86519 10.9664 9.86519 11.6111 9.33774L17.8725 4.21479Z" fill="#C598FF"/>
</svg>
