<svg width="25" height="25" viewBox="0 0 25 25" fill="none" xmlns="http://www.w3.org/2000/svg">
<g clip-path="url(#clip0_241_294)">
<path d="M17.5391 4.60938C18.0469 4.33594 19.0234 3.86719 19.1797 3.82813C19.8047 3.63281 20.4297 3.47656 21.0938 3.39844C25.3906 7.42188 26.2891 13.8672 23.2422 18.9063C23.3203 18.2813 23.3594 17.6953 23.3594 17.0703C23.3594 12.2266 21.0938 7.65625 17.1875 4.76563C17.1875 4.76563 17.3047 4.6875 17.5391 4.60938ZM20.2344 2.65625H20.1953C19.9219 2.73438 19.6875 2.77344 19.4531 2.85156C19.4141 2.85156 19.3359 2.89063 19.2969 2.89063C15.2344 4.0625 12.1875 8.00781 12.0703 12.2266C12.0313 12.2656 11.9922 12.2656 11.9141 12.3047C11.7969 12.3828 11.6797 12.4219 11.5625 12.4609C10.2344 13.0859 8.78906 13.3594 7.30469 13.3203C7.22656 13.3203 7.14844 13.3203 7.10938 13.3203C7.07031 7.30469 11.2891 2.10938 17.2266 0.937502C18.2813 1.36719 19.2969 1.95313 20.2344 2.65625ZM12.9297 13.2813C14.1016 14.1016 15.0781 15.1953 15.7422 16.4453C15.7813 16.5234 15.8203 16.6406 15.8203 16.7188C15.7813 17.0703 14.3359 17.5 14.0234 17.6172C13.3203 17.8906 12.6172 18.0859 11.9141 18.2422C10.5078 18.5156 9.02344 18.5547 7.57813 18.3203C6.13281 18.0859 4.76563 17.6172 3.47656 16.9141C2.8125 16.5625 2.22656 16.1328 1.64063 15.7031C1.28906 15.4297 0.15625 14.6484 0.078125 14.2188C-0.078125 13.0469 -0.078125 11.875 0.078125 10.7422C0.078125 10.7813 0.117188 10.7813 0.117188 10.8203L0.273438 10.9766C0.429688 11.1719 0.625 11.3281 0.820312 11.5234C2.34375 12.9297 4.29688 13.8672 6.36719 14.1406C8.4375 14.4141 10.5859 14.0234 12.4609 13.0078C12.5 13.0469 12.5391 13.0469 12.6172 13.0859C12.7344 13.125 12.8516 13.2031 12.9297 13.2813ZM16.7578 19.5313C12.5 21.4453 7.57813 21.2109 3.51563 18.8672C2.53906 18.2813 1.60156 17.6172 0.78125 16.7969C0.664063 16.4453 0.546875 16.0547 0.429688 15.7031C4.72656 19.7266 11.1719 20.4687 16.25 17.5C16.2891 17.5391 16.2891 17.6172 16.3281 17.6563C16.3281 17.6953 16.3672 17.7344 16.3672 17.7734C16.5625 18.3594 16.6797 18.9453 16.7578 19.5313ZM14.6484 0.195315C15.0391 0.27344 15.3906 0.351565 15.7813 0.42969C10.1172 2.14844 6.25 7.34375 6.28906 13.2422C6.25 13.2422 6.17188 13.2422 6.13281 13.2031C6.09375 13.2031 6.05469 13.2031 6.01563 13.2031C5.42969 13.0859 4.80469 12.9297 4.25781 12.6953C4.72656 8.00781 7.42188 3.86719 11.4844 1.5625C12.4609 0.976565 13.5156 0.507815 14.6484 0.195315ZM6.25 1.67969C8.20313 0.546877 10.4297 -0.0390601 12.6953 2.39099e-06C7.65625 2.14844 4.10156 6.875 3.47656 12.3047C3.35938 12.2656 3.24219 12.1875 3.125 12.1094C2.14844 11.5625 1.28906 10.8203 0.585938 9.92188C0.507813 9.80469 0.390625 9.6875 0.3125 9.57031C1.13281 6.28906 3.28125 3.39844 6.25 1.67969ZM6.25 23.3203C4.29688 22.1875 2.69531 20.5469 1.60156 18.5937C2.07031 18.9453 2.57813 19.2969 3.125 19.6094C7.30469 22.0313 12.4219 22.3437 16.875 20.4297V20.8203C16.875 22.0703 16.6016 23.3594 16.0938 24.4922C12.8125 25.4688 9.21875 25.0391 6.25 23.3203ZM17.1484 24.0625C17.8516 22.0312 17.8516 19.8047 17.2266 17.7344C16.5234 15.5859 15.1172 13.7109 13.2422 12.4609C13.125 12.3828 13.0469 12.3438 12.9297 12.2656C12.9297 10.625 13.4766 8.98438 14.3359 7.61719C14.375 7.57813 14.4141 7.5 14.4531 7.42188C19.7266 10.3516 22.1094 16.6406 20.1563 22.3438C20.0391 22.6953 18.9844 23.1641 18.6719 23.3203C18.2031 23.6328 17.6953 23.9062 17.1484 24.0625ZM21.3281 21.3281C22.6563 15.625 20.0781 9.6875 14.9609 6.75781C15 6.71875 15.0391 6.67969 15.0781 6.64063C15.1172 6.60156 15.1172 6.5625 15.1563 6.5625C15.5469 6.09375 16.0156 5.66406 16.4844 5.3125C20.2734 8.04688 22.5 12.4609 22.5391 17.1094C22.5391 18.2813 22.3828 19.4141 22.1484 20.5469C21.8359 20.7812 21.6016 21.0937 21.3281 21.3281Z" fill="url(#paint0_linear_241_294)"/>
</g>
<defs>
<linearGradient id="paint0_linear_241_294" x1="12.5004" y1="-0.00183105" x2="12.5004" y2="25.0058" gradientUnits="userSpaceOnUse">
<stop stop-color="#7F2BFF"/>
<stop offset="1" stop-color="#A259FF"/>
</linearGradient>
<clipPath id="clip0_241_294">
<rect width="25" height="25" fill="white"/>
</clipPath>
</defs>
</svg>
