<svg width="20" height="20" viewBox="0 0 20 20" fill="none" xmlns="http://www.w3.org/2000/svg">
<g clip-path="url(#clip0_331_3772)">
<path d="M18.7909 10.2034C18.7909 9.55376 18.7326 8.92906 18.6243 8.32935H9.99512V11.8776H14.9261C14.7095 13.0188 14.0598 13.985 13.0853 14.6347V16.9419H16.0589C17.7914 15.3426 18.7909 12.9938 18.7909 10.2034Z" fill="white"/>
<path d="M9.99508 19.1575C12.4689 19.1575 14.5429 18.3412 16.0588 16.9419L13.0853 14.6347C12.269 15.1844 11.2278 15.5176 9.99508 15.5176C7.61289 15.5176 5.58886 13.91 4.86421 11.7444H1.81567V14.1099C3.32328 17.1001 6.41347 19.1575 9.99508 19.1575Z" fill="white"/>
<path d="M4.86441 11.7361C4.68116 11.1864 4.57288 10.6033 4.57288 9.99528C4.57288 9.38724 4.68116 8.80418 4.86441 8.25445V5.88892H1.81587C1.19117 7.12166 0.833008 8.51266 0.833008 9.99528C0.833008 11.4779 1.19117 12.8689 1.81587 14.1016L4.18973 12.2525L4.86441 11.7361Z" fill="white"/>
<path d="M9.99508 4.48126C11.3444 4.48126 12.5439 4.9477 13.5017 5.84727L16.1255 3.22353C14.5346 1.74091 12.4689 0.833008 9.99508 0.833008C6.41347 0.833008 3.32328 2.89035 1.81567 5.88891L4.86421 8.25444C5.58886 6.08882 7.61289 4.48126 9.99508 4.48126Z" fill="white"/>
</g>
<defs>
<clipPath id="clip0_331_3772">
<rect width="19.9904" height="19.9904" fill="white"/>
</clipPath>
</defs>
</svg>
