<svg width="27" height="27" viewBox="0 0 27 27" fill="none" xmlns="http://www.w3.org/2000/svg">
<path d="M16.1028 15.199L19.1366 11.3061C18.3463 10.9379 17.605 10.4617 16.9472 9.9021L8.13048 20.4419C8.02738 20.5794 7.8654 20.6726 7.71322 20.6923C7.07993 20.7954 6.22575 20.8248 5.78883 20.3977C5.26847 19.9068 5.24393 18.8367 5.2783 18.5028C5.37648 17.6683 4.77756 16.9074 3.94301 16.8092C3.11337 16.711 2.34755 17.305 2.23957 18.1494C2.21012 18.4341 1.95483 20.9574 3.65339 22.5921C4.26703 23.1861 5.31266 23.8145 6.99648 23.8145C7.35975 23.8145 7.75247 23.785 8.17956 23.7212C9.08776 23.5788 9.92231 23.0977 10.5212 22.3614L12.1019 20.3339V20.2603C12.1019 17.8008 13.8103 15.739 16.1028 15.199Z" fill="url(#paint0_linear_241_459)"/>
<path d="M24.4409 2.82893C23.9669 2.37791 23.2101 2.41611 22.7896 2.92068L21.1688 4.86259L19.3722 7.01089L17.5756 9.15152C18.2254 9.70196 18.9593 10.1607 19.7544 10.5123L21.4058 8.38702L23.0725 6.24636L24.5556 4.34271C24.9073 3.88398 24.8614 3.22651 24.4409 2.82893Z" fill="url(#paint1_linear_241_459)"/>
<path d="M21.1237 21.6051C21.1021 21.6079 21.0801 21.6094 21.059 21.6094C20.8164 21.6094 20.6055 21.4296 20.5729 21.1827C20.5374 20.914 20.7263 20.6673 20.9952 20.6319C21.1683 20.609 21.3416 20.5824 21.5149 20.5572C21.5217 20.459 21.5299 20.3612 21.5299 20.2613C21.5299 19.8693 21.4723 19.4915 21.3724 19.1314C21.2919 19.1421 21.2114 19.1551 21.1309 19.1651C21.1103 19.1678 21.0897 19.169 21.0695 19.169C20.8255 19.169 20.6141 18.9873 20.5829 18.7389C20.5503 18.4769 20.7318 18.241 20.9895 18.1976C20.2661 16.9093 18.8887 16.0374 17.306 16.0374C15.7095 16.0374 14.3206 16.9237 13.6025 18.2306C13.6602 18.2372 13.7184 18.2471 13.7759 18.2533C14.0453 18.2823 14.2404 18.5244 14.2112 18.7938C14.1843 19.0455 13.9715 19.2322 13.7236 19.2322C13.7064 19.2322 13.6886 19.2313 13.6704 19.2294C13.5242 19.2136 13.3765 19.1895 13.2293 19.1716C13.1364 19.5198 13.0822 19.8838 13.0822 20.2613C13.0822 20.3834 13.0903 20.5035 13.1004 20.623C13.3272 20.659 13.5501 20.7028 13.7788 20.7318C14.0477 20.7661 14.238 21.0118 14.204 21.2807C14.1723 21.5288 13.9609 21.7098 13.7174 21.7098C13.6968 21.7098 13.6762 21.7086 13.6551 21.706C13.5426 21.6916 13.4337 21.6683 13.3215 21.6524C13.8971 23.3007 15.4613 24.4852 17.306 24.4852C19.1789 24.4852 20.7647 23.265 21.3181 21.5772C21.2533 21.5861 21.1885 21.5965 21.1237 21.6051ZM16.6542 21.9004C16.6533 21.9004 16.6518 21.9004 16.6509 21.9004C16.1446 21.897 15.6403 21.8793 15.1508 21.8479C14.8804 21.8304 14.6752 21.5971 14.6925 21.3265C14.7098 21.0559 14.9356 20.8469 15.2141 20.868C15.6844 20.8982 16.17 20.9152 16.6576 20.9186C16.9289 20.9205 17.147 21.1417 17.1451 21.4128C17.1432 21.6827 16.9236 21.9004 16.6542 21.9004ZM16.6614 19.412C16.659 19.412 16.6566 19.412 16.6542 19.412C16.1604 19.4048 15.6575 19.3857 15.1604 19.3552C14.8895 19.3387 14.6834 19.1059 14.7002 18.8353C14.7169 18.5647 14.9523 18.3597 15.2198 18.3753C15.7026 18.4048 16.1897 18.4233 16.6686 18.4302C16.9395 18.4343 17.1562 18.6572 17.1523 18.9283C17.1485 19.197 16.9294 19.412 16.6614 19.412ZM19.6399 21.7705C19.1385 21.8158 18.6366 21.8498 18.149 21.8716C18.1413 21.8718 18.1341 21.8721 18.1265 21.8721C17.8657 21.8721 17.6485 21.6664 17.6365 21.403C17.6245 21.1321 17.834 20.9027 18.1049 20.8907C18.5781 20.8697 19.0647 20.8366 19.5517 20.7925C19.8202 20.7735 20.0604 20.9672 20.0848 21.2371C20.1093 21.5073 19.9103 21.746 19.6399 21.7705ZM19.6433 19.3169C19.1476 19.3557 18.6452 19.3835 18.1504 19.3993C18.1447 19.3996 18.1394 19.3996 18.1341 19.3996C17.8705 19.3996 17.6523 19.1898 17.6442 18.9242C17.6356 18.6534 17.8479 18.4266 18.1188 18.418C18.5987 18.4026 19.0858 18.3758 19.5666 18.3379C19.8355 18.3199 20.0733 18.5184 20.0944 18.7888C20.1155 19.0592 19.9137 19.2955 19.6433 19.3169Z" fill="url(#paint2_linear_241_459)"/>
<defs>
<linearGradient id="paint0_linear_241_459" x1="10.6729" y1="9.9021" x2="10.6729" y2="23.8145" gradientUnits="userSpaceOnUse">
<stop stop-color="#7F2BFF"/>
<stop offset="1" stop-color="#A259FF"/>
</linearGradient>
<linearGradient id="paint1_linear_241_459" x1="21.1832" y1="2.5148" x2="21.1832" y2="10.5123" gradientUnits="userSpaceOnUse">
<stop stop-color="#7F2BFF"/>
<stop offset="1" stop-color="#A259FF"/>
</linearGradient>
<linearGradient id="paint2_linear_241_459" x1="17.306" y1="16.0374" x2="17.306" y2="24.4852" gradientUnits="userSpaceOnUse">
<stop stop-color="#7F2BFF"/>
<stop offset="1" stop-color="#A259FF"/>
</linearGradient>
</defs>
</svg>
