<svg width="20" height="20" viewBox="0 0 20 20" fill="none" xmlns="http://www.w3.org/2000/svg">
<g clip-path="url(#clip0_680_2226)">
<path d="M16.6585 8.32949C16.6585 12.4883 12.0449 16.8196 10.4956 18.1573C10.3513 18.2658 10.1756 18.3245 9.99502 18.3245C9.81444 18.3245 9.63875 18.2658 9.49443 18.1573C7.94517 16.8196 3.33154 12.4883 3.33154 8.32949C3.33154 6.56223 4.03359 4.86735 5.28323 3.6177C6.53287 2.36806 8.22776 1.66602 9.99502 1.66602C11.7623 1.66602 13.4572 2.36806 14.7068 3.6177C15.9565 4.86735 16.6585 6.56223 16.6585 8.32949Z" stroke="white" stroke-width="1.66587" stroke-linecap="round" stroke-linejoin="round"/>
<path d="M9.99539 10.8282C11.3754 10.8282 12.4942 9.70942 12.4942 8.32937C12.4942 6.94932 11.3754 5.83057 9.99539 5.83057C8.61533 5.83057 7.49658 6.94932 7.49658 8.32937C7.49658 9.70942 8.61533 10.8282 9.99539 10.8282Z" stroke="white" stroke-width="1.66587" stroke-linecap="round" stroke-linejoin="round"/>
</g>
<defs>
<clipPath id="clip0_680_2226">
<rect width="19.9904" height="19.9904" fill="white"/>
</clipPath>
</defs>
</svg>
