<svg width="21" height="21" viewBox="0 0 21 21" fill="none" xmlns="http://www.w3.org/2000/svg">
<path d="M2.05228 6.02767C1.89595 6.39986 1.82727 6.79364 1.7927 7.21683C1.75401 7.69036 1.75402 8.27167 1.75403 8.97601V12.8983C1.75402 13.6027 1.75401 14.1839 1.7927 14.6575C1.83288 15.1493 1.91912 15.6014 2.13551 16.0262C2.47106 16.6847 3.00649 17.2201 3.66506 17.5557C4.08974 17.7721 4.54185 17.8583 5.03369 17.8985C5.50722 17.9372 6.08852 17.9372 6.79286 17.9372H14.2152C14.9195 17.9372 15.5008 17.9372 15.9744 17.8985C16.4662 17.8583 16.9183 17.7721 17.343 17.5557C18.0016 17.2201 18.537 16.6847 18.8725 16.0262C19.0889 15.6014 19.1752 15.1493 19.2154 14.6575C19.254 14.1839 19.254 13.6027 19.254 12.8983V8.97601C19.254 8.27167 19.254 7.69037 19.2154 7.21683C19.1808 6.79363 19.1121 6.39985 18.9557 6.02765L12.7203 11.1293C11.4311 12.1842 9.57696 12.1842 8.28768 11.1293L2.05228 6.02767Z" fill="url(#paint0_linear_212_1834)"/>
<path d="M17.8725 4.21497C17.7068 4.08886 17.5293 3.97716 17.3419 3.88167C16.9172 3.66528 16.465 3.57904 15.9732 3.53886C15.4997 3.50017 14.9184 3.50017 14.214 3.50018H6.79175C6.08741 3.50017 5.50607 3.50017 5.03254 3.53886C4.5407 3.57904 4.08859 3.66528 3.66392 3.88167C3.47648 3.97716 3.29902 4.08887 3.1333 4.21498L9.39469 9.33792C10.0393 9.86537 10.9664 9.86537 11.6111 9.33792L17.8725 4.21497Z" fill="url(#paint1_linear_212_1834)"/>
<defs>
<linearGradient id="paint0_linear_212_1834" x1="10.504" y1="6.02765" x2="10.504" y2="17.9372" gradientUnits="userSpaceOnUse">
<stop stop-color="#7F2BFF"/>
<stop offset="1" stop-color="#A259FF"/>
</linearGradient>
<linearGradient id="paint1_linear_212_1834" x1="10.5029" y1="3.50018" x2="10.5029" y2="9.73351" gradientUnits="userSpaceOnUse">
<stop stop-color="#7F2BFF"/>
<stop offset="1" stop-color="#A259FF"/>
</linearGradient>
</defs>
</svg>
