<svg width="16" height="16" viewBox="0 0 16 16" fill="none" xmlns="http://www.w3.org/2000/svg">
<path d="M11.2749 12.3479H12.6192C12.7376 12.3499 12.8547 12.3232 12.9604 12.2701C13.0663 12.217 13.1576 12.139 13.2266 12.0427C13.2956 11.9466 13.3404 11.8351 13.3568 11.7179C13.3734 11.6006 13.3612 11.4811 13.3214 11.3696C12.9785 10.6358 12.4357 10.0134 11.7553 9.57402C11.0749 9.13455 10.2844 8.89576 9.47441 8.88507" stroke="white" stroke-linecap="round" stroke-linejoin="round"/>
<path d="M9.47441 7.15061C9.7771 7.15061 10.0768 7.09106 10.3564 6.97521C10.636 6.85937 10.89 6.68963 11.104 6.47562C11.318 6.26165 11.4878 6.0076 11.6036 5.728C11.7194 5.44839 11.779 5.14872 11.779 4.84608C11.7798 4.54294 11.7208 4.24262 11.6053 3.96232C11.4898 3.68203 11.3202 3.42727 11.1061 3.21263C10.8921 2.998 10.6377 2.82771 10.3578 2.71152C10.0778 2.59533 9.7776 2.53552 9.47441 2.53552" stroke="white" stroke-linecap="round" stroke-linejoin="round"/>
<path d="M8.8203 13.098C9.04168 13.0975 9.25864 13.0358 9.44712 12.9196C9.6356 12.8035 9.7883 12.6374 9.88829 12.44C9.98829 12.2424 10.0317 12.021 10.0138 11.8004C9.99577 11.5798 9.91716 11.3683 9.78654 11.1896C9.32833 10.5809 8.7383 10.0838 8.0606 9.73559C7.38297 9.38743 6.63528 9.19713 5.87358 9.17908C5.1119 9.19713 4.3642 9.38743 3.68654 9.73559C3.00886 10.0838 2.41882 10.5809 1.96063 11.1896C1.83001 11.3683 1.75137 11.5798 1.73342 11.8004C1.71546 12.021 1.75888 12.2424 1.85888 12.44C1.95889 12.6374 2.11157 12.8035 2.30006 12.9196C2.48854 13.0358 2.70547 13.0975 2.92686 13.098H8.8203Z" stroke="white" stroke-linecap="round" stroke-linejoin="round"/>
<path d="M5.87356 7.22264C6.56647 7.22106 7.23052 6.94466 7.71993 6.45413C8.20933 5.96357 8.48422 5.29893 8.48422 4.606C8.48422 3.91361 8.20915 3.24958 7.71955 2.76C7.22996 2.27041 6.56597 1.99536 5.87356 1.99536C5.18118 1.99536 4.51715 2.27041 4.02757 2.76C3.53798 3.24958 3.26292 3.91361 3.26292 4.606C3.26292 5.29893 3.53778 5.96357 4.0272 6.45413C4.51662 6.94466 5.18063 7.22106 5.87356 7.22264Z" stroke="white" stroke-linecap="round" stroke-linejoin="round"/>
</svg>
