<svg width="21" height="21" viewBox="0 0 21 21" fill="none" xmlns="http://www.w3.org/2000/svg">
<path d="M17.8238 18.5938C17.8238 18.7678 17.7546 18.9347 17.6315 19.0578C17.5085 19.1809 17.3416 19.25 17.1675 19.25H3.83252C3.65847 19.25 3.49155 19.1809 3.36848 19.0578C3.24541 18.9347 3.17627 18.7678 3.17627 18.5938C3.17627 15.0063 7.11377 12.2238 10.5 12.2238C13.8863 12.2238 17.8238 15.0063 17.8238 18.5938Z" fill="url(#paint0_linear_212_1822)"/>
<path d="M14.9625 6.22127C14.9608 7.10349 14.6976 7.96539 14.2062 8.69809C13.7148 9.43075 13.0172 10.0014 12.2017 10.3379C11.3861 10.6742 10.4892 10.7614 9.62405 10.5882C8.75903 10.415 7.96469 9.98935 7.34148 9.36486C6.71826 8.74044 6.29413 7.94527 6.12265 7.07987C5.95117 6.21447 6.04004 5.31768 6.37806 4.50278C6.71607 3.68787 7.28804 2.99143 8.0217 2.50148C8.75535 2.01151 9.61784 1.75 10.5 1.75C11.6843 1.75232 12.8194 2.22442 13.6561 3.06268C14.4926 3.90096 14.9625 5.03693 14.9625 6.22127Z" fill="url(#paint1_linear_212_1822)"/>
<defs>
<linearGradient id="paint0_linear_212_1822" x1="10.5" y1="12.2238" x2="10.5" y2="19.25" gradientUnits="userSpaceOnUse">
<stop stop-color="#7F2BFF"/>
<stop offset="1" stop-color="#A259FF"/>
</linearGradient>
<linearGradient id="paint1_linear_212_1822" x1="10.5" y1="1.75" x2="10.5" y2="10.675" gradientUnits="userSpaceOnUse">
<stop stop-color="#7F2BFF"/>
<stop offset="1" stop-color="#A259FF"/>
</linearGradient>
</defs>
</svg>
