<svg width="21" height="21" viewBox="0 0 21 21" fill="none" xmlns="http://www.w3.org/2000/svg">
<path d="M18.6639 16.6553C18.5541 17.148 18.2817 17.5894 17.8906 17.9085C17.4363 18.3723 16.8876 18.733 16.2817 18.9663C15.7518 19.172 15.1882 19.2774 14.6197 19.2774H14.3352C13.0575 19.2088 11.8064 18.8854 10.6554 18.3264H10.6466C10.3799 18.2019 10.1043 18.0775 9.83763 17.9264C8.49476 17.172 7.26245 16.2357 6.1756 15.1442C4.76609 13.8207 3.60952 12.2515 2.76245 10.5134C2.31281 9.56079 2.013 8.54436 1.87361 7.50019C1.66627 6.40749 1.79009 5.27777 2.22917 4.2559C2.50603 3.79483 2.84388 3.37327 3.23357 3.00263C3.40479 2.80883 3.61335 2.65163 3.84682 2.54044C4.09206 2.42543 4.35827 2.36188 4.62901 2.35376C4.91672 2.38605 5.19519 2.47494 5.44842 2.61528C5.70164 2.75562 5.92465 2.94466 6.10453 3.17151C6.50451 3.60705 6.99333 4.06036 7.39331 4.47812L7.9445 5.02031C8.26851 5.30751 8.46901 5.70873 8.50437 6.14025C8.50449 6.53675 8.35903 6.91948 8.09554 7.21575C7.92492 7.42324 7.74397 7.62201 7.55335 7.81129L7.37563 7.99794C7.27222 8.09355 7.193 8.21238 7.14452 8.34461C7.1008 8.47317 7.08263 8.60904 7.09113 8.74457C7.23282 9.12206 7.45411 9.46462 7.73998 9.749C8.1844 10.3534 8.62883 10.8778 9.08215 11.4467C9.90238 12.3984 10.8756 13.2065 11.962 13.8377C12.0724 13.9191 12.2002 13.9738 12.3353 13.9976C12.4534 14.006 12.5719 13.9878 12.682 13.9444C12.9925 13.7621 13.2693 13.5276 13.4998 13.251C13.8107 12.8708 14.2565 12.6256 14.7441 12.5666C15.213 12.5733 15.6603 12.7649 15.9885 13.0999C16.1662 13.251 16.3618 13.4555 16.5484 13.6511L16.8151 13.9266L17.0907 14.1932L17.5618 14.6731C17.843 14.9219 18.1073 15.1892 18.3529 15.4732C18.5998 15.8149 18.7107 16.2362 18.6639 16.6553Z" fill="url(#paint0_linear_212_1840)"/>
<path d="M15.4734 10.5667C15.2973 10.5644 15.1291 10.4934 15.0046 10.3689C14.8801 10.2444 14.8091 10.0761 14.8068 9.90008C14.808 9.3966 14.7096 8.89794 14.5175 8.43262C14.3254 7.96729 14.0434 7.54453 13.6873 7.18856C13.3314 6.83259 12.9086 6.55044 12.4433 6.35833C11.9779 6.16623 11.4792 6.06795 10.9758 6.06912C10.799 6.06912 10.6295 5.99887 10.5044 5.87385C10.3795 5.74883 10.3091 5.57929 10.3091 5.40248C10.3091 5.22568 10.3795 5.05612 10.5044 4.9311C10.6295 4.80608 10.799 4.73585 10.9758 4.73585C11.6543 4.73468 12.3264 4.86746 12.9535 5.12656C13.5805 5.38568 14.1503 5.76601 14.6301 6.24579C15.1098 6.72556 15.4902 7.29534 15.7494 7.92241C16.0085 8.54949 16.1412 9.22152 16.1401 9.90008C16.1401 10.0768 16.0698 10.2464 15.9448 10.3714C15.8197 10.4965 15.6502 10.5667 15.4734 10.5667Z" fill="url(#paint1_linear_212_1840)"/>
<path d="M18.5576 10.2556C18.3815 10.2532 18.2133 10.1823 18.0888 10.0578C17.9643 9.93326 17.8933 9.765 17.8909 9.58895C17.8922 8.73144 17.7242 7.8821 17.3968 7.08953C17.0695 6.29696 16.5892 5.57672 15.9833 4.96995C15.3773 4.36319 14.6576 3.88183 13.8655 3.55341C13.0735 3.22498 12.2244 3.05593 11.3669 3.05593C11.19 3.05593 11.0204 2.98569 10.8954 2.86067C10.7704 2.73566 10.7002 2.56609 10.7002 2.38929C10.7002 2.21249 10.7704 2.04292 10.8954 1.9179C11.0204 1.79288 11.19 1.72266 11.3669 1.72266C12.3994 1.72266 13.422 1.92619 14.3758 2.32161C15.3297 2.71704 16.1962 3.29661 16.9259 4.02718C17.6557 4.75775 18.2343 5.625 18.6287 6.57933C19.023 7.53366 19.2254 8.55635 19.2243 9.58895C19.2243 9.76579 19.1539 9.93536 19.029 10.0603C18.9039 10.1853 18.7344 10.2556 18.5576 10.2556Z" fill="url(#paint2_linear_212_1840)"/>
<defs>
<linearGradient id="paint0_linear_212_1840" x1="10.2251" y1="2.35376" x2="10.2251" y2="19.2774" gradientUnits="userSpaceOnUse">
<stop stop-color="#7F2BFF"/>
<stop offset="1" stop-color="#A259FF"/>
</linearGradient>
<linearGradient id="paint1_linear_212_1840" x1="13.2246" y1="4.73584" x2="13.2246" y2="10.5667" gradientUnits="userSpaceOnUse">
<stop stop-color="#7F2BFF"/>
<stop offset="1" stop-color="#A259FF"/>
</linearGradient>
<linearGradient id="paint2_linear_212_1840" x1="14.9622" y1="1.72266" x2="14.9622" y2="10.2556" gradientUnits="userSpaceOnUse">
<stop stop-color="#7F2BFF"/>
<stop offset="1" stop-color="#A259FF"/>
</linearGradient>
</defs>
</svg>
