<svg width="20" height="20" viewBox="0 0 20 20" fill="none" xmlns="http://www.w3.org/2000/svg">
<g clip-path="url(#clip0_680_2282)">
<path d="M18.159 8.3294C18.5394 10.1963 18.2683 12.1371 17.3909 13.8283C16.5135 15.5194 15.0828 16.8587 13.3375 17.6227C11.5922 18.3867 9.63772 18.5293 7.8 18.0267C5.96227 17.5241 4.35239 16.4067 3.23883 14.8608C2.12527 13.3149 1.57533 11.4339 1.68073 9.53165C1.78613 7.62935 2.5405 5.82068 3.81803 4.40725C5.09556 2.99383 6.81904 2.06109 8.70104 1.76459C10.583 1.46808 12.5098 1.82573 14.16 2.77789" stroke="#3E8EE9" stroke-width="1.66587" stroke-linecap="round" stroke-linejoin="round"/>
<path d="M7.49609 9.16209L9.9949 11.6609L18.3242 3.33154" stroke="#3E8EE9" stroke-width="1.66587" stroke-linecap="round" stroke-linejoin="round"/>
</g>
<defs>
<clipPath id="clip0_680_2282">
<rect width="19.9904" height="19.9904" fill="white"/>
</clipPath>
</defs>
</svg>
