<svg width="20" height="20" viewBox="0 0 20 20" fill="none" xmlns="http://www.w3.org/2000/svg">
<g clip-path="url(#clip0_680_2238)">
<path d="M13.3271 17.4917V15.8259C13.3271 14.9422 12.9761 14.0948 12.3513 13.47C11.7264 12.8452 10.879 12.4941 9.99536 12.4941H4.99775C4.11412 12.4941 3.26668 12.8452 2.64186 13.47C2.01704 14.0948 1.66602 14.9422 1.66602 15.8259V17.4917" stroke="white" stroke-width="1.66587" stroke-linecap="round" stroke-linejoin="round"/>
<path d="M13.3271 2.60547C14.0416 2.79069 14.6743 3.2079 15.126 3.79162C15.5777 4.37534 15.8228 5.09252 15.8228 5.83059C15.8228 6.56866 15.5777 7.28584 15.126 7.86956C14.6743 8.45328 14.0416 8.8705 13.3271 9.05571" stroke="white" stroke-width="1.66587" stroke-linecap="round" stroke-linejoin="round"/>
<path d="M18.3245 17.4919V15.826C18.3239 15.0878 18.0782 14.3707 17.626 13.7872C17.1737 13.2038 16.5404 12.7871 15.8257 12.6025" stroke="white" stroke-width="1.66587" stroke-linecap="round" stroke-linejoin="round"/>
<path d="M7.49629 9.1625C9.33636 9.1625 10.828 7.67083 10.828 5.83076C10.828 3.99069 9.33636 2.49902 7.49629 2.49902C5.65622 2.49902 4.16455 3.99069 4.16455 5.83076C4.16455 7.67083 5.65622 9.1625 7.49629 9.1625Z" stroke="white" stroke-width="1.66587" stroke-linecap="round" stroke-linejoin="round"/>
</g>
<defs>
<clipPath id="clip0_680_2238">
<rect width="19.9904" height="19.9904" fill="white"/>
</clipPath>
</defs>
</svg>
